<mxfile host="www.draw.io" modified="2019-11-02T13:17:38.561Z" agent="Mozilla/5.0 (Windows NT 10.0; Win64; x64) AppleWebKit/537.36 (KHTML, like Gecko) Chrome/77.0.3865.120 Safari/537.36" etag="SlTZw1VvEEbTYpbNWFxy" version="12.1.9" type="github" pages="1">
  <diagram id="sOJgpRjMxfrlRFF4v9KC" name="Page-1">
    <mxGraphModel dx="1422" dy="762" grid="1" gridSize="10" guides="1" tooltips="1" connect="1" arrows="1" fold="1" page="1" pageScale="1" pageWidth="827" pageHeight="1169" math="0" shadow="0">
      <root>
        <mxCell id="0"/>
        <mxCell id="1" parent="0"/>
        <mxCell id="GSiQ4Ob3SJ08c_HrdLGT-2" style="edgeStyle=orthogonalEdgeStyle;rounded=0;orthogonalLoop=1;jettySize=auto;html=1;" parent="1" source="GSiQ4Ob3SJ08c_HrdLGT-3" edge="1">
          <mxGeometry relative="1" as="geometry">
            <mxPoint x="180" y="460" as="targetPoint"/>
            <Array as="points">
              <mxPoint x="180" y="520"/>
              <mxPoint x="180" y="520"/>
            </Array>
          </mxGeometry>
        </mxCell>
        <mxCell id="GSiQ4Ob3SJ08c_HrdLGT-1" value="" style="ellipse;whiteSpace=wrap;html=1;" parent="1" vertex="1">
          <mxGeometry x="120" y="320" width="120" height="80" as="geometry"/>
        </mxCell>
        <mxCell id="GSiQ4Ob3SJ08c_HrdLGT-3" value="minArea" style="rounded=0;whiteSpace=wrap;html=1;" parent="1" vertex="1">
          <mxGeometry x="120" y="420" width="120" height="60" as="geometry"/>
        </mxCell>
        <mxCell id="GSiQ4Ob3SJ08c_HrdLGT-4" style="edgeStyle=orthogonalEdgeStyle;rounded=0;orthogonalLoop=1;jettySize=auto;html=1;" parent="1" source="GSiQ4Ob3SJ08c_HrdLGT-1" target="GSiQ4Ob3SJ08c_HrdLGT-3" edge="1">
          <mxGeometry relative="1" as="geometry">
            <mxPoint x="180" y="460" as="targetPoint"/>
            <mxPoint x="180" y="390" as="sourcePoint"/>
          </mxGeometry>
        </mxCell>
        <mxCell id="GSiQ4Ob3SJ08c_HrdLGT-7" value="" style="edgeStyle=orthogonalEdgeStyle;rounded=0;orthogonalLoop=1;jettySize=auto;html=1;" parent="1" source="GSiQ4Ob3SJ08c_HrdLGT-5" edge="1">
          <mxGeometry relative="1" as="geometry">
            <mxPoint x="180" y="590" as="targetPoint"/>
          </mxGeometry>
        </mxCell>
        <mxCell id="GSiQ4Ob3SJ08c_HrdLGT-5" value="比例为&amp;gt;2" style="rhombus;whiteSpace=wrap;html=1;" parent="1" vertex="1">
          <mxGeometry x="140" y="490" width="80" height="80" as="geometry"/>
        </mxCell>
        <mxCell id="GSiQ4Ob3SJ08c_HrdLGT-10" value="" style="edgeStyle=orthogonalEdgeStyle;rounded=0;orthogonalLoop=1;jettySize=auto;html=1;" parent="1" source="GSiQ4Ob3SJ08c_HrdLGT-8" target="GSiQ4Ob3SJ08c_HrdLGT-9" edge="1">
          <mxGeometry relative="1" as="geometry"/>
        </mxCell>
        <mxCell id="GSiQ4Ob3SJ08c_HrdLGT-8" value="扩大面积，保存为roi" style="rounded=0;whiteSpace=wrap;html=1;" parent="1" vertex="1">
          <mxGeometry x="120" y="590" width="120" height="60" as="geometry"/>
        </mxCell>
        <mxCell id="GSiQ4Ob3SJ08c_HrdLGT-12" value="" style="edgeStyle=orthogonalEdgeStyle;rounded=0;orthogonalLoop=1;jettySize=auto;html=1;" parent="1" source="GSiQ4Ob3SJ08c_HrdLGT-9" target="GSiQ4Ob3SJ08c_HrdLGT-11" edge="1">
          <mxGeometry relative="1" as="geometry"/>
        </mxCell>
        <mxCell id="GSiQ4Ob3SJ08c_HrdLGT-9" value="roi转HSV" style="rounded=0;whiteSpace=wrap;html=1;" parent="1" vertex="1">
          <mxGeometry x="120" y="670" width="120" height="60" as="geometry"/>
        </mxCell>
        <mxCell id="GSiQ4Ob3SJ08c_HrdLGT-13" style="edgeStyle=orthogonalEdgeStyle;rounded=0;orthogonalLoop=1;jettySize=auto;html=1;exitX=0.5;exitY=1;exitDx=0;exitDy=0;" parent="1" source="GSiQ4Ob3SJ08c_HrdLGT-11" edge="1">
          <mxGeometry relative="1" as="geometry">
            <mxPoint x="180" y="840" as="targetPoint"/>
          </mxGeometry>
        </mxCell>
        <mxCell id="GSiQ4Ob3SJ08c_HrdLGT-11" value="计算车牌底色" style="rounded=0;whiteSpace=wrap;html=1;" parent="1" vertex="1">
          <mxGeometry x="120" y="750" width="120" height="60" as="geometry"/>
        </mxCell>
        <mxCell id="GSiQ4Ob3SJ08c_HrdLGT-14" value="根据颜色缩小区域" style="rounded=0;whiteSpace=wrap;html=1;" parent="1" vertex="1">
          <mxGeometry x="120" y="940" width="120" height="60" as="geometry"/>
        </mxCell>
        <mxCell id="GSiQ4Ob3SJ08c_HrdLGT-17" value="" style="edgeStyle=orthogonalEdgeStyle;rounded=0;orthogonalLoop=1;jettySize=auto;html=1;entryX=0.5;entryY=0;entryDx=0;entryDy=0;" parent="1" source="GSiQ4Ob3SJ08c_HrdLGT-15" target="GSiQ4Ob3SJ08c_HrdLGT-18" edge="1">
          <mxGeometry relative="1" as="geometry">
            <mxPoint x="490" y="480" as="targetPoint"/>
          </mxGeometry>
        </mxCell>
        <mxCell id="GSiQ4Ob3SJ08c_HrdLGT-15" value="" style="ellipse;whiteSpace=wrap;html=1;" parent="1" vertex="1">
          <mxGeometry x="430" y="320" width="120" height="80" as="geometry"/>
        </mxCell>
        <mxCell id="GSiQ4Ob3SJ08c_HrdLGT-19" style="edgeStyle=orthogonalEdgeStyle;rounded=0;orthogonalLoop=1;jettySize=auto;html=1;entryX=0.5;entryY=0;entryDx=0;entryDy=0;" parent="1" source="GSiQ4Ob3SJ08c_HrdLGT-18" target="GSiQ4Ob3SJ08c_HrdLGT-20" edge="1">
          <mxGeometry relative="1" as="geometry">
            <mxPoint x="490" y="500" as="targetPoint"/>
          </mxGeometry>
        </mxCell>
        <mxCell id="GSiQ4Ob3SJ08c_HrdLGT-18" value="minArea" style="rounded=0;whiteSpace=wrap;html=1;" parent="1" vertex="1">
          <mxGeometry x="430" y="420" width="120" height="60" as="geometry"/>
        </mxCell>
        <mxCell id="GSiQ4Ob3SJ08c_HrdLGT-28" style="edgeStyle=orthogonalEdgeStyle;rounded=0;orthogonalLoop=1;jettySize=auto;html=1;exitX=0.5;exitY=1;exitDx=0;exitDy=0;entryX=0.5;entryY=0;entryDx=0;entryDy=0;" parent="1" source="GSiQ4Ob3SJ08c_HrdLGT-20" target="GSiQ4Ob3SJ08c_HrdLGT-22" edge="1">
          <mxGeometry relative="1" as="geometry"/>
        </mxCell>
        <mxCell id="GSiQ4Ob3SJ08c_HrdLGT-20" value="" style="rhombus;whiteSpace=wrap;html=1;" parent="1" vertex="1">
          <mxGeometry x="450" y="510" width="80" height="80" as="geometry"/>
        </mxCell>
        <mxCell id="UEBu72hojOKj4oL53jnx-5" style="edgeStyle=orthogonalEdgeStyle;rounded=0;orthogonalLoop=1;jettySize=auto;html=1;exitX=0.5;exitY=1;exitDx=0;exitDy=0;entryX=0.5;entryY=0;entryDx=0;entryDy=0;" parent="1" source="GSiQ4Ob3SJ08c_HrdLGT-22" target="GSiQ4Ob3SJ08c_HrdLGT-26" edge="1">
          <mxGeometry relative="1" as="geometry"/>
        </mxCell>
        <mxCell id="GSiQ4Ob3SJ08c_HrdLGT-22" value="1 保存rotatedRect , 2 保存roi(HSV)" style="rounded=0;whiteSpace=wrap;html=1;" parent="1" vertex="1">
          <mxGeometry x="430" y="610" width="120" height="60" as="geometry"/>
        </mxCell>
        <mxCell id="UEBu72hojOKj4oL53jnx-4" style="edgeStyle=orthogonalEdgeStyle;rounded=0;orthogonalLoop=1;jettySize=auto;html=1;exitX=0.5;exitY=1;exitDx=0;exitDy=0;entryX=0.5;entryY=0;entryDx=0;entryDy=0;" parent="1" source="GSiQ4Ob3SJ08c_HrdLGT-26" target="GSiQ4Ob3SJ08c_HrdLGT-29" edge="1">
          <mxGeometry relative="1" as="geometry"/>
        </mxCell>
        <mxCell id="GSiQ4Ob3SJ08c_HrdLGT-26" value="计算车牌底色" style="rounded=0;whiteSpace=wrap;html=1;" parent="1" vertex="1">
          <mxGeometry x="430" y="700" width="120" height="60" as="geometry"/>
        </mxCell>
        <mxCell id="GSiQ4Ob3SJ08c_HrdLGT-27" value="根据颜色缩小区域" style="rounded=0;whiteSpace=wrap;html=1;" parent="1" vertex="1">
          <mxGeometry x="430" y="880" width="120" height="60" as="geometry"/>
        </mxCell>
        <mxCell id="UEBu72hojOKj4oL53jnx-2" style="edgeStyle=orthogonalEdgeStyle;rounded=0;orthogonalLoop=1;jettySize=auto;html=1;exitX=0.5;exitY=1;exitDx=0;exitDy=0;entryX=0.5;entryY=0;entryDx=0;entryDy=0;" parent="1" source="GSiQ4Ob3SJ08c_HrdLGT-29" target="GSiQ4Ob3SJ08c_HrdLGT-27" edge="1">
          <mxGeometry relative="1" as="geometry"/>
        </mxCell>
        <mxCell id="GSiQ4Ob3SJ08c_HrdLGT-29" value="根据rotatedRect 扩大体积，保存为roi2(HSV)" style="rounded=0;whiteSpace=wrap;html=1;" parent="1" vertex="1">
          <mxGeometry x="430" y="780" width="120" height="60" as="geometry"/>
        </mxCell>
        <mxCell id="UEBu72hojOKj4oL53jnx-7" style="edgeStyle=orthogonalEdgeStyle;rounded=0;orthogonalLoop=1;jettySize=auto;html=1;exitX=0.5;exitY=1;exitDx=0;exitDy=0;entryX=0.5;entryY=0;entryDx=0;entryDy=0;" parent="1" source="UEBu72hojOKj4oL53jnx-6" target="GSiQ4Ob3SJ08c_HrdLGT-14" edge="1">
          <mxGeometry relative="1" as="geometry"/>
        </mxCell>
        <mxCell id="UEBu72hojOKj4oL53jnx-6" value="确定唯一的车牌roi" style="rounded=0;whiteSpace=wrap;html=1;" parent="1" vertex="1">
          <mxGeometry x="120" y="840" width="120" height="60" as="geometry"/>
        </mxCell>
        <mxCell id="C0Rlq2liqc8mPEFT4iel-5" style="edgeStyle=orthogonalEdgeStyle;rounded=0;orthogonalLoop=1;jettySize=auto;html=1;exitX=0.5;exitY=1;exitDx=0;exitDy=0;" edge="1" parent="1" source="C0Rlq2liqc8mPEFT4iel-1">
          <mxGeometry relative="1" as="geometry">
            <mxPoint x="230" y="1260" as="targetPoint"/>
          </mxGeometry>
        </mxCell>
        <mxCell id="C0Rlq2liqc8mPEFT4iel-1" value="开始" style="ellipse;whiteSpace=wrap;html=1;" vertex="1" parent="1">
          <mxGeometry x="170" y="1160" width="120" height="80" as="geometry"/>
        </mxCell>
        <mxCell id="C0Rlq2liqc8mPEFT4iel-8" value="" style="edgeStyle=orthogonalEdgeStyle;rounded=0;orthogonalLoop=1;jettySize=auto;html=1;" edge="1" parent="1" source="C0Rlq2liqc8mPEFT4iel-3">
          <mxGeometry relative="1" as="geometry">
            <mxPoint x="400" y="1520" as="targetPoint"/>
          </mxGeometry>
        </mxCell>
        <mxCell id="C0Rlq2liqc8mPEFT4iel-21" style="edgeStyle=orthogonalEdgeStyle;rounded=0;orthogonalLoop=1;jettySize=auto;html=1;exitX=1;exitY=0.5;exitDx=0;exitDy=0;entryX=0.5;entryY=0;entryDx=0;entryDy=0;" edge="1" parent="1" source="C0Rlq2liqc8mPEFT4iel-3" target="C0Rlq2liqc8mPEFT4iel-22">
          <mxGeometry relative="1" as="geometry">
            <mxPoint x="610" y="1450" as="targetPoint"/>
          </mxGeometry>
        </mxCell>
        <mxCell id="C0Rlq2liqc8mPEFT4iel-3" value="是否为白区" style="rhombus;whiteSpace=wrap;html=1;" vertex="1" parent="1">
          <mxGeometry x="360" y="1410" width="80" height="80" as="geometry"/>
        </mxCell>
        <mxCell id="C0Rlq2liqc8mPEFT4iel-9" style="edgeStyle=orthogonalEdgeStyle;rounded=0;orthogonalLoop=1;jettySize=auto;html=1;exitX=0.5;exitY=1;exitDx=0;exitDy=0;" edge="1" parent="1" source="C0Rlq2liqc8mPEFT4iel-6">
          <mxGeometry relative="1" as="geometry">
            <mxPoint x="230" y="1350" as="targetPoint"/>
          </mxGeometry>
        </mxCell>
        <mxCell id="C0Rlq2liqc8mPEFT4iel-6" value="行数自增" style="rounded=0;whiteSpace=wrap;html=1;" vertex="1" parent="1">
          <mxGeometry x="170" y="1260" width="120" height="60" as="geometry"/>
        </mxCell>
        <mxCell id="C0Rlq2liqc8mPEFT4iel-12" style="edgeStyle=orthogonalEdgeStyle;rounded=0;orthogonalLoop=1;jettySize=auto;html=1;" edge="1" parent="1" source="C0Rlq2liqc8mPEFT4iel-11">
          <mxGeometry relative="1" as="geometry">
            <mxPoint x="230" y="1450" as="targetPoint"/>
          </mxGeometry>
        </mxCell>
        <mxCell id="C0Rlq2liqc8mPEFT4iel-20" style="edgeStyle=orthogonalEdgeStyle;rounded=0;orthogonalLoop=1;jettySize=auto;html=1;exitX=1;exitY=0.5;exitDx=0;exitDy=0;entryX=0.5;entryY=0;entryDx=0;entryDy=0;" edge="1" parent="1" source="C0Rlq2liqc8mPEFT4iel-11" target="C0Rlq2liqc8mPEFT4iel-3">
          <mxGeometry relative="1" as="geometry"/>
        </mxCell>
        <mxCell id="C0Rlq2liqc8mPEFT4iel-11" value="是否为最后一行" style="rhombus;whiteSpace=wrap;html=1;" vertex="1" parent="1">
          <mxGeometry x="190" y="1350" width="80" height="80" as="geometry"/>
        </mxCell>
        <mxCell id="C0Rlq2liqc8mPEFT4iel-14" style="edgeStyle=orthogonalEdgeStyle;rounded=0;orthogonalLoop=1;jettySize=auto;html=1;exitX=0.5;exitY=1;exitDx=0;exitDy=0;" edge="1" parent="1" source="C0Rlq2liqc8mPEFT4iel-13">
          <mxGeometry relative="1" as="geometry">
            <mxPoint x="230" y="1550" as="targetPoint"/>
          </mxGeometry>
        </mxCell>
        <mxCell id="C0Rlq2liqc8mPEFT4iel-18" style="edgeStyle=orthogonalEdgeStyle;rounded=0;orthogonalLoop=1;jettySize=auto;html=1;entryX=0.45;entryY=0;entryDx=0;entryDy=0;entryPerimeter=0;" edge="1" parent="1" source="C0Rlq2liqc8mPEFT4iel-13" target="C0Rlq2liqc8mPEFT4iel-19">
          <mxGeometry relative="1" as="geometry">
            <mxPoint x="80" y="1490" as="targetPoint"/>
          </mxGeometry>
        </mxCell>
        <mxCell id="C0Rlq2liqc8mPEFT4iel-13" value="白count&amp;gt;20" style="rhombus;whiteSpace=wrap;html=1;" vertex="1" parent="1">
          <mxGeometry x="190" y="1450" width="80" height="80" as="geometry"/>
        </mxCell>
        <mxCell id="C0Rlq2liqc8mPEFT4iel-16" style="edgeStyle=orthogonalEdgeStyle;rounded=0;orthogonalLoop=1;jettySize=auto;html=1;" edge="1" parent="1" source="C0Rlq2liqc8mPEFT4iel-15">
          <mxGeometry relative="1" as="geometry">
            <mxPoint x="230" y="1640" as="targetPoint"/>
          </mxGeometry>
        </mxCell>
        <mxCell id="C0Rlq2liqc8mPEFT4iel-15" value="记录最后一行" style="rounded=0;whiteSpace=wrap;html=1;" vertex="1" parent="1">
          <mxGeometry x="170" y="1550" width="120" height="60" as="geometry"/>
        </mxCell>
        <mxCell id="C0Rlq2liqc8mPEFT4iel-19" value="返回err" style="rounded=0;whiteSpace=wrap;html=1;" vertex="1" parent="1">
          <mxGeometry x="20" y="1530" width="120" height="60" as="geometry"/>
        </mxCell>
        <mxCell id="C0Rlq2liqc8mPEFT4iel-23" style="edgeStyle=orthogonalEdgeStyle;rounded=0;orthogonalLoop=1;jettySize=auto;html=1;" edge="1" parent="1" source="C0Rlq2liqc8mPEFT4iel-22">
          <mxGeometry relative="1" as="geometry">
            <mxPoint x="600" y="1570" as="targetPoint"/>
          </mxGeometry>
        </mxCell>
        <mxCell id="C0Rlq2liqc8mPEFT4iel-28" style="edgeStyle=orthogonalEdgeStyle;rounded=0;orthogonalLoop=1;jettySize=auto;html=1;exitX=1;exitY=0.5;exitDx=0;exitDy=0;entryX=1;entryY=0.5;entryDx=0;entryDy=0;" edge="1" parent="1" source="C0Rlq2liqc8mPEFT4iel-22" target="C0Rlq2liqc8mPEFT4iel-6">
          <mxGeometry relative="1" as="geometry"/>
        </mxCell>
        <mxCell id="C0Rlq2liqc8mPEFT4iel-22" value="white count &amp;gt;20" style="rhombus;whiteSpace=wrap;html=1;" vertex="1" parent="1">
          <mxGeometry x="560" y="1470" width="80" height="80" as="geometry"/>
        </mxCell>
        <mxCell id="C0Rlq2liqc8mPEFT4iel-25" style="edgeStyle=orthogonalEdgeStyle;rounded=0;orthogonalLoop=1;jettySize=auto;html=1;entryX=0.5;entryY=0;entryDx=0;entryDy=0;" edge="1" parent="1" source="C0Rlq2liqc8mPEFT4iel-24" target="C0Rlq2liqc8mPEFT4iel-27">
          <mxGeometry relative="1" as="geometry">
            <mxPoint x="600" y="1656" as="targetPoint"/>
          </mxGeometry>
        </mxCell>
        <mxCell id="C0Rlq2liqc8mPEFT4iel-24" value="记录最后一行" style="rounded=0;whiteSpace=wrap;html=1;" vertex="1" parent="1">
          <mxGeometry x="540" y="1570" width="120" height="60" as="geometry"/>
        </mxCell>
        <mxCell id="C0Rlq2liqc8mPEFT4iel-26" value="&lt;span style=&quot;white-space: normal&quot;&gt;结束&lt;/span&gt;" style="ellipse;whiteSpace=wrap;html=1;" vertex="1" parent="1">
          <mxGeometry x="170" y="1640" width="120" height="80" as="geometry"/>
        </mxCell>
        <mxCell id="C0Rlq2liqc8mPEFT4iel-27" value="&lt;span style=&quot;white-space: normal&quot;&gt;结束&lt;/span&gt;" style="ellipse;whiteSpace=wrap;html=1;" vertex="1" parent="1">
          <mxGeometry x="540" y="1660" width="120" height="80" as="geometry"/>
        </mxCell>
        <mxCell id="C0Rlq2liqc8mPEFT4iel-30" style="edgeStyle=orthogonalEdgeStyle;rounded=0;orthogonalLoop=1;jettySize=auto;html=1;" edge="1" parent="1" source="C0Rlq2liqc8mPEFT4iel-29">
          <mxGeometry relative="1" as="geometry">
            <mxPoint x="400" y="1640" as="targetPoint"/>
          </mxGeometry>
        </mxCell>
        <mxCell id="C0Rlq2liqc8mPEFT4iel-36" style="edgeStyle=orthogonalEdgeStyle;rounded=0;orthogonalLoop=1;jettySize=auto;html=1;entryX=0.5;entryY=0;entryDx=0;entryDy=0;" edge="1" parent="1" source="C0Rlq2liqc8mPEFT4iel-29" target="C0Rlq2liqc8mPEFT4iel-35">
          <mxGeometry relative="1" as="geometry"/>
        </mxCell>
        <mxCell id="C0Rlq2liqc8mPEFT4iel-29" value="前一个为黑区" style="rhombus;whiteSpace=wrap;html=1;" vertex="1" parent="1">
          <mxGeometry x="360" y="1520" width="80" height="80" as="geometry"/>
        </mxCell>
        <mxCell id="C0Rlq2liqc8mPEFT4iel-33" style="edgeStyle=orthogonalEdgeStyle;rounded=0;orthogonalLoop=1;jettySize=auto;html=1;exitX=0.5;exitY=1;exitDx=0;exitDy=0;" edge="1" parent="1" source="C0Rlq2liqc8mPEFT4iel-32">
          <mxGeometry relative="1" as="geometry">
            <mxPoint x="490" y="1790" as="targetPoint"/>
          </mxGeometry>
        </mxCell>
        <mxCell id="C0Rlq2liqc8mPEFT4iel-32" value="记录第一行" style="rounded=0;whiteSpace=wrap;html=1;" vertex="1" parent="1">
          <mxGeometry x="360" y="1640" width="80" height="50" as="geometry"/>
        </mxCell>
        <mxCell id="C0Rlq2liqc8mPEFT4iel-37" style="edgeStyle=orthogonalEdgeStyle;rounded=0;orthogonalLoop=1;jettySize=auto;html=1;exitX=0.5;exitY=1;exitDx=0;exitDy=0;" edge="1" parent="1" source="C0Rlq2liqc8mPEFT4iel-35">
          <mxGeometry relative="1" as="geometry">
            <mxPoint x="490" y="1810" as="targetPoint"/>
          </mxGeometry>
        </mxCell>
        <mxCell id="C0Rlq2liqc8mPEFT4iel-35" value="白count++" style="rounded=0;whiteSpace=wrap;html=1;" vertex="1" parent="1">
          <mxGeometry x="450" y="1640" width="80" height="50" as="geometry"/>
        </mxCell>
      </root>
    </mxGraphModel>
  </diagram>
</mxfile>
